<svg width="70" height="70" viewBox="0 0 70 70" fill="none" xmlns="http://www.w3.org/2000/svg">
<rect width="70" height="70" rx="35" fill="#0E3CA8"/>
<g clip-path="url(#clip0_693_6581)">
<path d="M44.1666 27.6666V22.1666C44.1666 21.6804 43.9735 21.214 43.6297 20.8702C43.2859 20.5264 42.8195 20.3333 42.3333 20.3333H24C23.0275 20.3333 22.0949 20.7196 21.4073 21.4072C20.7196 22.0948 20.3333 23.0275 20.3333 23.9999M20.3333 23.9999C20.3333 24.9724 20.7196 25.905 21.4073 26.5926C22.0949 27.2803 23.0275 27.6666 24 27.6666H46C46.4862 27.6666 46.9525 27.8597 47.2963 28.2036C47.6402 28.5474 47.8333 29.0137 47.8333 29.4999V34.9999M20.3333 23.9999V45.9999C20.3333 46.9724 20.7196 47.905 21.4073 48.5926C22.0949 49.2803 23.0275 49.6666 24 49.6666H46C46.4862 49.6666 46.9525 49.4734 47.2963 49.1296C47.6402 48.7858 47.8333 48.3195 47.8333 47.8333V42.3333" stroke="white" stroke-width="2" stroke-linecap="round" stroke-linejoin="round"/>
<path d="M49.6667 35V42.3333H42.3334C41.3609 42.3333 40.4283 41.947 39.7406 41.2594C39.053 40.5718 38.6667 39.6391 38.6667 38.6667C38.6667 37.6942 39.053 36.7616 39.7406 36.0739C40.4283 35.3863 41.3609 35 42.3334 35H49.6667Z" stroke="white" stroke-width="2" stroke-linecap="round" stroke-linejoin="round"/>
</g>
<defs>
<clipPath id="clip0_693_6581">
<rect width="44" height="44" fill="white" transform="translate(13 13)"/>
</clipPath>
</defs>
</svg>
